{"title":"2012 Supernova-AC3-5,1-DVDRip[Eng]2009","uid":5214661,"size":1460015501,"categoryP":"video","categoryS":"movies","magnet":"?xt=urn:btih:f54363399fb65bc91d17486ca96d28500a4b4910&amp;dn=2012+Supernova-AC3-5%2C1-DVDRip%5BEng%5D2009&amp;tr=udp%3A%2F%2Ftracker.openbittorrent.com%3A80&amp;tr=udp%3A%2F%2Fopen.demonii.com%3A1337&amp;tr=udp%3A%2F%2Ftracker.coppersurfer.tk%3A6969&amp;tr=udp%3A%2F%2Fexodus.desync.com%3A6969","seeders":0,"leechers":1,"uploader":"FatFreddy31","files":-1,"time":1260719718,"description":" &lt;a href=&quot;http://www.imdb.com/title/tt1479847/&quot; rel=&quot;nofollow&quot; target=&quot;_NEW&quot;&gt;http://www.imdb.com/title/tt1479847/&lt;/a&gt;\n\nUser Rating:2.1/10 - 980 votes\n\nAction,Sci-Fi\n\nDirector:Anthony Fankhauser\n\nCast:Brian Krause/Heather McComb/Najarra Townsend/Londale Theus, and others.\n\nPlot:\nA scientist tries to save the Earth from the deadly blast of a star gone supernova.\n\nInfo:\n\nGeneral\nComplete name                    : 2012 Supernova-AC3-5,1-DVDRip[Eng]2009.avi\nFormat                           : AVI\nFormat/Info                      : Audio Video Interleave\nFile size                        : 1.36 GiB\nDuration                         : 1h 27mn\nOverall bit rate                 : 2 235 Kbps\nWriting application              : VirtualDubMod 1.5.4.1 (build 2178/release)\nWriting library                  : VirtualDubMod build 2178/release\n\nVideo\nID                               : 0\nFormat                           : MPEG-4 Visual\nFormat profile                   : Simple@L3\nFormat settings, BVOP            : No\nFormat settings, QPel            : No\nFormat settings, GMC             : No warppoints\nFormat settings, Matrix          : Default (H.263)\nCodec ID                         : XVID\nCodec ID/Hint                    : XviD\nDuration                         : 1h 27mn\nBit rate                         : 1 778 Kbps\nWidth                            : 624 pixels\nHeight                           : 352 pixels\nDisplay aspect ratio             : 16:9\nFrame rate                       : 23.976 fps\nResolution                       : 24 bits\nColorimetry                      : 4:2:0\nScan type                        : Progressive\nBits/(Pixel*Frame)               : 0.338\nStream size                      : 1.08 GiB (80%)\nWriting library                  : XviD 1.1.2 (UTC 2006-11-01)\n\nAudio\nID                               : 1\nFormat                           : AC-3\nFormat/Info                      : Audio Coding 3\nCodec ID                         : 2000\nDuration                         : 1h 27mn\nBit rate mode                    : Constant\nBit rate                         : 448 Kbps\nChannel(s)                       : 6 channels\nChannel positions                : Front: L C R, Surround: L R, LFE\nSampling rate                    : 48.0 KHz\nStream size                      : 279 MiB (20%)\nAlignment                        : Split accross interleaves\nInterleave, duration             : 42 ms (1.00 video frame)\nInterleave, preload duration     : 500 ms\n\nEnjoy..","torrent":{"xt":"urn:btih:f54363399fb65bc91d17486ca96d28500a4b4910","amp;dn":"2012+Supernova-AC3-5%2C1-DVDRip%5BEng%5D2009","amp;tr":["udp%3A%2F%2Ftracker.openbittorrent.com%3A80","udp%3A%2F%2Fopen.demonii.com%3A1337","udp%3A%2F%2Ftracker.coppersurfer.tk%3A6969","udp%3A%2F%2Fexodus.desync.com%3A6969"],"infoHash":"f54363399fb65bc91d17486ca96d28500a4b4910","infoHashBuffer":{"type":"Buffer","data":[245,67,99,57,159,182,91,201,29,23,72,108,169,109,40,80,10,75,73,16]},"announce":[],"urlList":[]}}